<svg class="marks" width="459" height="467" viewBox="0 0 459 467" version="1.1" xmlns="http://www.w3.org/2000/svg" xmlns:xlink="http://www.w3.org/1999/xlink"><g transform="translate(54,29)"><g class="mark-group role-frame root"><g transform="translate(0,0)"><path class="background" d="M0.5,0.5h400v400h-400Z" style="fill: none; stroke: #ddd;"></path><g><g class="mark-group role-axis"><g transform="translate(0.5,0.5)"><path class="background" d="M0,0h0v0h0Z" style="pointer-events: none; fill: none;"></path><g><g class="mark-rule role-axis-grid" style="pointer-events: none;"><line transform="translate(0,400)" x2="400" y2="0" style="fill: none; stroke: #ddd; stroke-width: 1; opacity: 1;"></line><line transform="translate(0,364)" x2="400" y2="0" style="fill: none; stroke: #ddd; stroke-width: 1; opacity: 1;"></line><line transform="translate(0,327)" x2="400" y2="0" style="fill: none; stroke: #ddd; stroke-width: 1; opacity: 1;"></line><line transform="translate(0,291)" x2="400" y2="0" style="fill: none; stroke: #ddd; stroke-width: 1; opacity: 1;"></line><line transform="translate(0,255)" x2="400" y2="0" style="fill: none; stroke: #ddd; stroke-width: 1; opacity: 1;"></line><line transform="translate(0,218)" x2="400" y2="0" style="fill: none; stroke: #ddd; stroke-width: 1; opacity: 1;"></line><line transform="translate(0,182)" x2="400" y2="0" style="fill: none; stroke: #ddd; stroke-width: 1; opacity: 1;"></line><line transform="translate(0,145)" x2="400" y2="0" style="fill: none; stroke: #ddd; stroke-width: 1; opacity: 1;"></line><line transform="translate(0,109)" x2="400" y2="0" style="fill: none; stroke: #ddd; stroke-width: 1; opacity: 1;"></line><line transform="translate(0,73)" x2="400" y2="0" style="fill: none; stroke: #ddd; stroke-width: 1; opacity: 1;"></line><line transform="translate(0,36)" x2="400" y2="0" style="fill: none; stroke: #ddd; stroke-width: 1; opacity: 1;"></line><line transform="translate(0,0)" x2="400" y2="0" style="fill: none; stroke: #ddd; stroke-width: 1; opacity: 1;"></line></g></g></g></g><g class="mark-rect role-mark marks"><path d="M2.2222222222222285,379.6363636363636h40v20.363636363636374h-40Z" style="fill: #4c78a8;"></path><path d="M46.66666666666667,360h40v40h-40Z" style="fill: #4c78a8;"></path><path d="M91.11111111111111,368.72727272727275h40v31.272727272727252h-40Z" style="fill: #4c78a8;"></path><path d="M135.55555555555554,333.8181818181818h40v66.18181818181819h-40Z" style="fill: #4c78a8;"></path><path d="M180,341.09090909090907h40v58.909090909090935h-40Z" style="fill: #4c78a8;"></path><path d="M224.44444444444446,361.45454545454544h40v38.54545454545456h-40Z" style="fill: #4c78a8;"></path><path d="M268.88888888888886,386.1818181818182h40v13.818181818181813h-40Z" style="fill: #4c78a8;"></path><path d="M313.3333333333333,336.72727272727275h40v63.27272727272725h-40Z" style="fill: #4c78a8;"></path><path d="M357.77777777777777,21.818181818181813h40v378.1818181818182h-40Z" style="fill: #4c78a8;"></path></g><g class="mark-text role-title" style="pointer-events: none;"><text text-anchor="middle" transform="translate(175.5,-13)" style="font: bold 13px sans-serif; fill: #000; opacity: 1;">This is my plot :)</text></g><g class="mark-group role-axis"><g transform="translate(0.5,400.5)"><path class="background" d="M0,0h0v0h0Z" style="pointer-events: none; fill: none;"></path><g><g class="mark-rule role-axis-tick" style="pointer-events: none;"><line transform="translate(21,0)" x2="0" y2="5" style="fill: none; stroke: #888; stroke-width: 1; opacity: 1;"></line><line transform="translate(66,0)" x2="0" y2="5" style="fill: none; stroke: #888; stroke-width: 1; opacity: 1;"></line><line transform="translate(110,0)" x2="0" y2="5" style="fill: none; stroke: #888; stroke-width: 1; opacity: 1;"></line><line transform="translate(155,0)" x2="0" y2="5" style="fill: none; stroke: #888; stroke-width: 1; opacity: 1;"></line><line transform="translate(199,0)" x2="0" y2="5" style="fill: none; stroke: #888; stroke-width: 1; opacity: 1;"></line><line transform="translate(243,0)" x2="0" y2="5" style="fill: none; stroke: #888; stroke-width: 1; opacity: 1;"></line><line transform="translate(288,0)" x2="0" y2="5" style="fill: none; stroke: #888; stroke-width: 1; opacity: 1;"></line><line transform="translate(332,0)" x2="0" y2="5" style="fill: none; stroke: #888; stroke-width: 1; opacity: 1;"></line><line transform="translate(377,0)" x2="0" y2="5" style="fill: none; stroke: #888; stroke-width: 1; opacity: 1;"></line></g><g class="mark-text role-axis-label" style="pointer-events: none;"><text text-anchor="end" transform="translate(21.22222222222223,7) rotate(270) translate(0,3)" style="font: 10px sans-serif; fill: #000; opacity: 1;">A</text><text text-anchor="end" transform="translate(65.66666666666667,7) rotate(270) translate(0,3)" style="font: 10px sans-serif; fill: #000; opacity: 1;">B</text><text text-anchor="end" transform="translate(110.11111111111111,7) rotate(270) translate(0,3)" style="font: 10px sans-serif; fill: #000; opacity: 1;">C</text><text text-anchor="end" transform="translate(154.55555555555554,7) rotate(270) translate(0,3)" style="font: 10px sans-serif; fill: #000; opacity: 1;">D</text><text text-anchor="end" transform="translate(199,7) rotate(270) translate(0,3)" style="font: 10px sans-serif; fill: #000; opacity: 1;">E</text><text text-anchor="end" transform="translate(243.44444444444446,7) rotate(270) translate(0,3)" style="font: 10px sans-serif; fill: #000; opacity: 1;">F</text><text text-anchor="end" transform="translate(287.88888888888886,7) rotate(270) translate(0,3)" style="font: 10px sans-serif; fill: #000; opacity: 1;">G</text><text text-anchor="end" transform="translate(332.3333333333333,7) rotate(270) translate(0,3)" style="font: 10px sans-serif; fill: #000; opacity: 1;">H</text><text text-anchor="end" transform="translate(376.77777777777777,7) rotate(270) translate(0,3)" style="font: 10px sans-serif; fill: #000; opacity: 1;">I</text></g><g class="mark-rule role-axis-domain" style="pointer-events: none;"><line transform="translate(0,0)" x2="400" y2="0" style="fill: none; stroke: #888; stroke-width: 1; opacity: 1;"></line></g><g class="mark-text role-axis-title" style="pointer-events: none;"><text text-anchor="middle" transform="translate(200,29)" style="font: bold 11px sans-serif; fill: #000; opacity: 1;">a</text></g></g></g></g><g class="mark-group role-axis"><g transform="translate(0.5,0.5)"><path class="background" d="M0,0h0v0h0Z" style="pointer-events: none; fill: none;"></path><g><g class="mark-rule role-axis-tick" style="pointer-events: none;"><line transform="translate(0,400)" x2="-5" y2="0" style="fill: none; stroke: #888; stroke-width: 1; opacity: 1;"></line><line transform="translate(0,364)" x2="-5" y2="0" style="fill: none; stroke: #888; stroke-width: 1; opacity: 1;"></line><line transform="translate(0,327)" x2="-5" y2="0" style="fill: none; stroke: #888; stroke-width: 1; opacity: 1;"></line><line transform="translate(0,291)" x2="-5" y2="0" style="fill: none; stroke: #888; stroke-width: 1; opacity: 1;"></line><line transform="translate(0,255)" x2="-5" y2="0" style="fill: none; stroke: #888; stroke-width: 1; opacity: 1;"></line><line transform="translate(0,218)" x2="-5" y2="0" style="fill: none; stroke: #888; stroke-width: 1; opacity: 1;"></line><line transform="translate(0,182)" x2="-5" y2="0" style="fill: none; stroke: #888; stroke-width: 1; opacity: 1;"></line><line transform="translate(0,145)" x2="-5" y2="0" style="fill: none; stroke: #888; stroke-width: 1; opacity: 1;"></line><line transform="translate(0,109)" x2="-5" y2="0" style="fill: none; stroke: #888; stroke-width: 1; opacity: 1;"></line><line transform="translate(0,73)" x2="-5" y2="0" style="fill: none; stroke: #888; stroke-width: 1; opacity: 1;"></line><line transform="translate(0,36)" x2="-5" y2="0" style="fill: none; stroke: #888; stroke-width: 1; opacity: 1;"></line><line transform="translate(0,0)" x2="-5" y2="0" style="fill: none; stroke: #888; stroke-width: 1; opacity: 1;"></line></g><g class="mark-text role-axis-label" style="pointer-events: none;"><text text-anchor="end" transform="translate(-7,403)" style="font: 10px sans-serif; fill: #000; opacity: 1;">0</text><text text-anchor="end" transform="translate(-7,366.6363636363636)" style="font: 10px sans-serif; fill: #000; opacity: 1;">50</text><text text-anchor="end" transform="translate(-7,330.27272727272725)" style="font: 10px sans-serif; fill: #000; opacity: 1;">100</text><text text-anchor="end" transform="translate(-7,293.90909090909093)" style="font: 10px sans-serif; fill: #000; opacity: 1;">150</text><text text-anchor="end" transform="translate(-7,257.5454545454545)" style="font: 10px sans-serif; fill: #000; opacity: 1;">200</text><text text-anchor="end" transform="translate(-7,221.1818181818182)" style="font: 10px sans-serif; fill: #000; opacity: 1;">250</text><text text-anchor="end" transform="translate(-7,184.81818181818184)" style="font: 10px sans-serif; fill: #000; opacity: 1;">300</text><text text-anchor="end" transform="translate(-7,148.45454545454547)" style="font: 10px sans-serif; fill: #000; opacity: 1;">350</text><text text-anchor="end" transform="translate(-7,112.09090909090907)" style="font: 10px sans-serif; fill: #000; opacity: 1;">400</text><text text-anchor="end" transform="translate(-7,75.72727272727269)" style="font: 10px sans-serif; fill: #000; opacity: 1;">450</text><text text-anchor="end" transform="translate(-7,39.363636363636374)" style="font: 10px sans-serif; fill: #000; opacity: 1;">500</text><text text-anchor="end" transform="translate(-7,3)" style="font: 10px sans-serif; fill: #000; opacity: 1;">550</text></g><g class="mark-rule role-axis-domain" style="pointer-events: none;"><line transform="translate(0,400)" x2="0" y2="-400" style="fill: none; stroke: #888; stroke-width: 1; opacity: 1;"></line></g><g class="mark-text role-axis-title" style="pointer-events: none;"><text text-anchor="middle" transform="translate(-36,200) rotate(-90) translate(0,-2)" style="font: bold 11px sans-serif; fill: #000; opacity: 1;">b</text></g></g></g></g></g></g></g></g></svg>